<svg xmlns="http://www.w3.org/2000/svg" width="20" height="20" viewBox="0 0 20 20">
  <defs>
    <style>
      .cls-1 {
        fill: #6a1476;
      }
    </style>
  </defs>
  <path id="calendar" class="cls-1" d="M10,16.249A1.253,1.253,0,1,0,8.8,15,1.253,1.253,0,0,0,10,16.249Zm-5,0A1.252,1.252,0,1,0,3.746,15,1.252,1.252,0,0,0,5,16.249Zm10-5A1.253,1.253,0,1,0,13.8,10,1.253,1.253,0,0,0,15,11.25Zm-5,0A1.253,1.253,0,1,0,8.8,10,1.253,1.253,0,0,0,10,11.25Zm-5,0A1.253,1.253,0,1,0,3.8,10,1.253,1.253,0,0,0,5,11.25Zm9.276-6.066A.689.689,0,0,0,15,4.537V.647a.728.728,0,0,0-1.447,0V4.537a.688.688,0,0,0,.723.647Zm-8.575,0a.676.676,0,0,0,.7-.647V.647a.7.7,0,0,0-1.4,0V4.537a.677.677,0,0,0,.7.647ZM18.589,16.878a1.665,1.665,0,0,1-1.6,1.7H3.123a1.751,1.751,0,0,1-1.7-1.7L1.473,7.5H18.639l-.049,9.377ZM17.5,1.248H16.427V2.678h.961c.9,0,1.252.351,1.252,1.251V6.095H1.471V3.928A1.251,1.251,0,0,1,2.723,2.678h.826V1.248H2.5C.674,1.248,0,2.8,0,4.2V17.5A2.476,2.476,0,0,0,2.5,20h15A2.476,2.476,0,0,0,20,17.5V3.75a2.478,2.478,0,0,0-2.5-2.5ZM7.833,2.678h4.308V1.248H7.833V2.678Z" transform="translate(0)"/>
</svg>
