<svg xmlns="http://www.w3.org/2000/svg" width="15" height="15" viewBox="0 0 15 15">
  <defs>
    <style>
      .cls-1 {
        fill: #484848;
      }
    </style>
  </defs>
  <g id="clock" transform="translate(-62.5 -62.5)">
    <path id="Caminho_2027" data-name="Caminho 2027" class="cls-1" d="M70,62.5A7.5,7.5,0,1,0,77.5,70,7.5,7.5,0,0,0,70,62.5Zm4.36,11.86A6.145,6.145,0,1,1,75.681,72.4,6.14,6.14,0,0,1,74.36,74.36Z"/>
    <path id="Caminho_2028" data-name="Caminho 2028" class="cls-1" d="M475.295,257.51l-3.043-2.207v-3.477a.626.626,0,1,0-1.251,0v4.115l3.561,2.581a.625.625,0,1,0,.734-1.011Z" transform="translate(-401.684 -185.552)"/>
  </g>
</svg>
