<svg xmlns="http://www.w3.org/2000/svg" width="30.2" height="30.133" viewBox="0 0 30.2 30.133">
  <defs>
    <style>
      .cls-1 {
        fill: #121f2b;
        stroke: #121f2b;
        stroke-width: 0.2px;
      }
    </style>
  </defs>
  <g id="desenvolvimento" transform="translate(-1365.9 -255.634)">
    <path id="Caminho_2238" data-name="Caminho 2238" class="cls-1" d="M248,16h1.154v2.308H248Z" transform="translate(1132.423 240.225)"/>
    <path id="Caminho_2239" data-name="Caminho 2239" class="cls-1" d="M0,0H1.154V2.308H0Z" transform="translate(1369.984 259.985) rotate(-45)"/>
    <path id="Caminho_2240" data-name="Caminho 2240" class="cls-1" d="M48,216h2.308v1.154H48Z" transform="translate(1318 51.058)"/>
    <path id="Caminho_2241" data-name="Caminho 2241" class="cls-1" d="M0,0H2.308V1.154H0Z" transform="translate(1369.982 275.308) rotate(-45)"/>
    <path id="Caminho_2242" data-name="Caminho 2242" class="cls-1" d="M0,0H1.154V2.308H0Z" transform="translate(1389.561 274.495) rotate(-45)"/>
    <path id="Caminho_2243" data-name="Caminho 2243" class="cls-1" d="M432,216h2.308v1.154H432Z" transform="translate(961.692 51.058)"/>
    <path id="Caminho_2244" data-name="Caminho 2244" class="cls-1" d="M0,0H2.308V1.154H0Z" transform="translate(1389.563 260.802) rotate(-45)"/>
    <path id="Caminho_2245" data-name="Caminho 2245" class="cls-1" d="M121.162,80.936a10.387,10.387,0,0,0-2.817,19.883v7.161a2.888,2.888,0,0,0,2.885,2.885h2.308a2.888,2.888,0,0,0,2.885-2.885V99.9a.577.577,0,0,0-.577-.577h-.577V97.4l.821-.34,1.767,1.767a.577.577,0,0,0,.816,0l2.448-2.448a.577.577,0,0,0,0-.816L129.352,93.8l.34-.821h2.5a.577.577,0,0,0,.577-.577V88.941a.577.577,0,0,0-.577-.577h-2.5l-.34-.821,1.767-1.767a.577.577,0,0,0,0-.816l-2.448-2.448a.577.577,0,0,0-.816,0l-1.767,1.767-.821-.34V81.509a.577.577,0,0,0-.577-.577h-3.462a.576.576,0,0,0-.067,0ZM119.5,100.428a.577.577,0,0,0-.373-.54,9.233,9.233,0,0,1,1.527-17.708V96.441a4.043,4.043,0,0,0,4.038,4.038h.577v2.308H119.5Zm5.769,5.821V107.4H119.5v-1.154h1.154V105.1H119.5v-1.154h5.769V105.1h-2.885v1.154Zm-1.731,3.462h-2.308a1.734,1.734,0,0,1-1.632-1.154h5.571a1.734,1.734,0,0,1-1.632,1.154Zm-1.731-21.038a2.308,2.308,0,1,1,0,4Zm0,5.264a3.462,3.462,0,1,0,0-6.53V82.085h2.308v2.241a.577.577,0,0,0,.356.533l1.533.635a.577.577,0,0,0,.629-.125l1.632-1.632,1.632,1.632L128.263,87a.577.577,0,0,0-.125.629l.635,1.533a.577.577,0,0,0,.533.356h2.308v2.308h-2.308a.577.577,0,0,0-.533.356l-.635,1.533a.577.577,0,0,0,.125.629l1.632,1.632-1.632,1.632-1.632-1.632A.577.577,0,0,0,126,95.85l-1.533.635a.577.577,0,0,0-.356.533v2.25a2.89,2.89,0,0,1-2.308-2.827Z" transform="translate(1258.617 174.803)"/>
  </g>
</svg>
