<svg xmlns="http://www.w3.org/2000/svg" width="26.778" height="26.778" viewBox="0 0 26.778 26.778">
  <defs>
    <style>
      .cls-1 {
        fill: none;
        stroke: #6a1476;
        stroke-width: 1.5px;
      }

      .cls-2 {
        fill: #fff;
      }
    </style>
  </defs>
  <g id="engrenagem" transform="translate(-22.624 -1014.558)">
    <path id="Caminho_3" data-name="Caminho 3" class="cls-1" d="M567.528,821.928a4.555,4.555,0,1,0,0,9.111,4.556,4.556,0,0,0,0-9.111Zm9.053,7.146-.807,1.965,1.614,3.216-2.062,2.054-3.317-1.519-1.972.8-.986,3.037-.09.447h-2.868l-1.255-3.483-1.972-.8L559.64,836.4l-2.062-2.054,1.524-3.3-.807-1.965-3.5-1.161v-2.858l3.5-1.25.807-1.965-1.434-2.858-.179-.357,2.062-2.054,3.317,1.518,1.972-.8.986-3.037.09-.447h2.868l1.255,3.484,1.972.8,3.227-1.608,2.062,2.054-1.524,3.3.807,1.965,3.5,1.161v2.858l-3.5,1.251Z" transform="translate(-531.426 201.508)"/>
    <rect id="Retângulo_1747" data-name="Retângulo 1747" class="cls-2" width="5.617" height="7.49" transform="matrix(0.469, -0.883, 0.883, 0.469, 39.69, 1033.27)"/>
  </g>
</svg>
