<svg id="house" xmlns="http://www.w3.org/2000/svg" width="27.091" height="26.834" viewBox="0 0 27.091 26.834">
  <defs>
    <style>
      .cls-1 {
        fill: #6a1476;
      }
    </style>
  </defs>
  <path id="Caminho_1890" data-name="Caminho 1890" class="cls-1" d="M169.833,538.373a.861.861,0,0,1,.668.836v11.063a.861.861,0,0,1-.859.857h-6.816a.861.861,0,0,1-.859-.857v-5.829H159.7v5.829a.861.861,0,0,1-.859.857h-6.86a.861.861,0,0,1-.859-.857V539.208a.858.858,0,0,1,1.7-.153.977.977,0,0,1,.014.153v10.206h5.142v-5.829a.861.861,0,0,1,.859-.857h3.986a.863.863,0,0,1,.859.857v5.829h5.1V539.208a.865.865,0,0,1,.9-.856,1.139,1.139,0,0,1,.152.021Z" transform="translate(-147.148 -524.295)"/>
  <path id="Caminho_1891" data-name="Caminho 1891" class="cls-1" d="M23.564,22.544l6.125,6.075c.021.023.042.045.062.069a.851.851,0,0,1,.189.606.86.86,0,0,1-1.317.657.884.884,0,0,1-.145-.115L16.4,17.851,4.315,29.836l-.069.062c-.025.017-.049.037-.076.054a.858.858,0,0,1-1.183-1.188.89.89,0,0,1,.117-.145L15.793,16.035c.023-.019.044-.041.068-.059a.851.851,0,0,1,.317-.161.833.833,0,0,1,.176-.027h.089c.03,0,.06,0,.089.009a.853.853,0,0,1,.332.127.937.937,0,0,1,.14.112l4.818,4.781q0-1.163.023-2.324a.859.859,0,0,1,1.665-.256,1.519,1.519,0,0,1,.052.256l0,4.053Z" transform="translate(-2.851 -15.787)"/>
</svg>
