<svg xmlns="http://www.w3.org/2000/svg" width="20.998" height="25.203" viewBox="0 0 20.998 25.203">
  <defs>
    <style>
      .cls-1 {
        fill: #6a1476;
        stroke: #fff;
        stroke-width: 0.5px;
      }

      .cls-2 {
        fill: none;
        stroke: #6a1476;
      }
    </style>
  </defs>
  <g id="money" transform="translate(-25.002 -502.682)">
    <path id="dollar" class="cls-1" d="M254.59,12.021a3.859,3.859,0,0,1-1.009,2.673,4.356,4.356,0,0,1-2.622,1.385v1.775a.313.313,0,0,1-.325.325h-1.369a.329.329,0,0,1-.325-.325V16.078a6.392,6.392,0,0,1-1.293-.314,6.226,6.226,0,0,1-1.78-.938,5.819,5.819,0,0,1-.472-.38q-.127-.122-.177-.183a.308.308,0,0,1-.02-.416l1.045-1.369a.316.316,0,0,1,.233-.122.251.251,0,0,1,.243.091l.02.02a5.3,5.3,0,0,0,2.465,1.268,3.543,3.543,0,0,0,.751.081,2.46,2.46,0,0,0,1.446-.436,1.421,1.421,0,0,0,.624-1.238,1.028,1.028,0,0,0-.152-.538,1.9,1.9,0,0,0-.34-.426,2.785,2.785,0,0,0-.593-.38q-.406-.208-.67-.325t-.812-.33l-.624-.254q-.228-.091-.624-.269t-.634-.314q-.238-.137-.573-.36a3.572,3.572,0,0,1-.543-.431,6.321,6.321,0,0,1-.441-.5,2.485,2.485,0,0,1-.36-.588,4.062,4.062,0,0,1-.213-.675,3.527,3.527,0,0,1-.086-.791,3.469,3.469,0,0,1,.994-2.455,4.642,4.642,0,0,1,2.587-1.359V.325a.312.312,0,0,1,.1-.228.312.312,0,0,1,.228-.1h1.369a.313.313,0,0,1,.325.325V2.11a5.642,5.642,0,0,1,1.121.233,6.5,6.5,0,0,1,.883.34,4.891,4.891,0,0,1,.644.38q.3.213.4.294t.152.142a.294.294,0,0,1,.051.385l-.822,1.481a.276.276,0,0,1-.233.162.323.323,0,0,1-.274-.071q-.03-.03-.147-.122t-.4-.269a5.243,5.243,0,0,0-.594-.325,4.529,4.529,0,0,0-.756-.264,3.384,3.384,0,0,0-.867-.117,2.636,2.636,0,0,0-1.572.436,1.364,1.364,0,0,0-.522,1.613,1.143,1.143,0,0,0,.3.421,4.47,4.47,0,0,0,.4.335,3.575,3.575,0,0,0,.568.314q.38.178.614.274t.71.279q.538.2.822.32t.771.355a6.13,6.13,0,0,1,.766.431,6.469,6.469,0,0,1,.629.507,2.629,2.629,0,0,1,.538.644,3.672,3.672,0,0,1,.319.776,3.348,3.348,0,0,1,.132.954Z" transform="translate(-214.625 506.98)"/>
    <path id="Caminho_1904" data-name="Caminho 1904" class="cls-2" d="M-13876.929,16575.119h18.1l-.057-20.012s.029-4.109,0-4.152-2.714,2.672-2.714,2.672-2.077-2.672-2.4-2.672a23.868,23.868,0,0,0-2.927,2.672s-2.03-2.672-2.381-2.672-2.54,2.672-2.54,2.672-2.038-2.672-2.5-2.672-2.217,2.672-2.217,2.672-2.232-3.09-2.252-2.672,0,9.371,0,12.5" transform="translate(13904.327 -16047.734)"/>
  </g>
</svg>
