<svg xmlns="http://www.w3.org/2000/svg" width="28.354" height="27.338" viewBox="0 0 28.354 27.338">
  <defs>
    <style>
      .cls-1, .cls-5 {
        fill: none;
      }

      .cls-1, .cls-2 {
        stroke: #6a1476;
      }

      .cls-1 {
        stroke-width: 2px;
      }

      .cls-2 {
        fill: #fff;
        stroke-width: 1.5px;
      }

      .cls-3 {
        fill: #6a1476;
        stroke: #fff;
        stroke-width: 0.5px;
      }

      .cls-4 {
        stroke: none;
      }
    </style>
  </defs>
  <g id="percent" transform="translate(-20.867 -485.404)">
    <path id="Caminho_1901" data-name="Caminho 1901" class="cls-1" d="M-13862.165,16458.57c-2.69,2.84-10.519,10.82-10.519,10.82" transform="translate(13903.137 -15966.713)"/>
    <g id="Elipse_356" data-name="Elipse 356" class="cls-2" transform="translate(36.46 498.632)">
      <circle class="cls-4" cx="2.5" cy="2.5" r="2.5"/>
      <circle class="cls-5" cx="2.5" cy="2.5" r="1.75"/>
    </g>
    <g id="Elipse_357" data-name="Elipse 357" class="cls-2" transform="translate(29.46 491.632)">
      <circle class="cls-4" cx="2.5" cy="2.5" r="2.5"/>
      <circle class="cls-5" cx="2.5" cy="2.5" r="1.75"/>
    </g>
    <g id="Grupo_1733" data-name="Grupo 1733" transform="translate(-107.171 384.312)">
      <g id="Grupo_1732" data-name="Grupo 1732" transform="translate(128.288 101.342)">
        <path id="Caminho_1989" data-name="Caminho 1989" class="cls-3" d="M154.006,103.775a6.7,6.7,0,0,0-10.334,0l-1.431,1.629a.048.048,0,0,1-.038.018.047.047,0,0,1-.037-.018l-1.408-1.6a6.7,6.7,0,0,0-10.334,0,9.167,9.167,0,0,0,0,11.766l10.582,12.048a1.553,1.553,0,0,0,2.4,0l5.815-6.622a1.028,1.028,0,0,0,0-1.322.752.752,0,0,0-1.161,0l-5.815,6.622a.048.048,0,0,1-.037.018.047.047,0,0,1-.037-.018l-10.582-12.048a7.108,7.108,0,0,1,0-9.123,5.2,5.2,0,0,1,8.012,0l1.408,1.6a1.553,1.553,0,0,0,2.4,0l1.431-1.629a5.2,5.2,0,0,1,8.012,0,7.108,7.108,0,0,1,0,9.123l-2.451,2.791a1.028,1.028,0,0,0,0,1.322.752.752,0,0,0,1.161,0l2.451-2.791A9.167,9.167,0,0,0,154.006,103.775Z" transform="translate(-128.288 -101.342)"/>
      </g>
    </g>
  </g>
</svg>
