<svg xmlns="http://www.w3.org/2000/svg" width="20" height="22.697" viewBox="0 0 20 22.697">
  <defs>
    <style>
      .cls-1 {
        fill: #6a1476;
      }
    </style>
  </defs>
  <path id="person" class="cls-1" d="M35.113,20.794a.953.953,0,0,1,0,1.9H18.6A2.6,2.6,0,0,1,16,20.2V18.618c0-3.814,3.828-6.162,8.3-6.162l2.106-.006,1.617,0,.3.01a.925.925,0,0,1,.858.981.915.915,0,0,1-.915.92l-.271-.01-3.172.009H24.3c-3.62,0-6.523,1.781-6.523,4.26V20.2c0,.247.386.6.822.6Zm-8.863-9.08a5.857,5.857,0,1,1,5.857-5.857A5.857,5.857,0,0,1,26.25,11.714Zm0-1.869a3.987,3.987,0,0,0,3.986-3.988,3.987,3.987,0,1,0-7.972,0,3.987,3.987,0,0,0,3.987,3.988Z" transform="translate(-16)"/>
</svg>
