<svg xmlns="http://www.w3.org/2000/svg" width="111.723" height="111.723" viewBox="0 0 111.723 111.723">
  <defs>
    <style>
      .cls-1 {
        fill: #fff;
        stroke-width: 5px;
      }

      .cls-1, .cls-2 {
        stroke: #bb06b3;
      }

      .cls-2 {
        fill: #bb06b3;
        stroke-width: 2px;
      }

      .cls-3 {
        stroke: none;
      }

      .cls-4 {
        fill: none;
      }
    </style>
  </defs>
  <g id="profile" transform="translate(5712.361 -12984.639)">
    <g id="Retângulo_10" data-name="Retângulo 10" class="cls-1" transform="translate(-5656.5 12984.639) rotate(45)">
      <rect class="cls-3" width="79" height="79" rx="8"/>
      <rect class="cls-4" x="2.5" y="2.5" width="74" height="74" rx="5.5"/>
    </g>
    <path id="profile-male" class="cls-2" d="M.659,45.651a.718.718,0,0,0,.874-.505C3,39.66,8.977,38.238,12.549,37.387a14.378,14.378,0,0,0,2.061-.58C18.678,35.042,20,32.2,20.4,30.129a.714.714,0,0,0-.236-.675,18.492,18.492,0,0,1-5.033-7.731.7.7,0,0,0-.147-.244,7.658,7.658,0,0,1-2.348-4.7,1.837,1.837,0,0,1,.979-1.737.713.713,0,0,0,.347-.582c.315-7.271,5.494-12.995,11.846-13.032l.153.01c6.383.088,11.529,5.935,11.713,13.309a.71.71,0,0,0,.254.527,1.835,1.835,0,0,1,.655,1.509,6.9,6.9,0,0,1-1.714,3.957.746.746,0,0,0-.12.226,18.579,18.579,0,0,1-5.621,8.771.716.716,0,0,0-.254.689c.4,2.071,1.723,4.91,5.791,6.679a13.4,13.4,0,0,0,2.174.575c3.536.765,9.452,2.048,10.9,7.468a.714.714,0,0,0,.688.528.762.762,0,0,0,.186-.024.715.715,0,0,0,.505-.875c-1.677-6.262-8.38-7.714-11.98-8.493a13.263,13.263,0,0,1-1.907-.491,7.763,7.763,0,0,1-4.869-5.231,20.258,20.258,0,0,0,5.707-9.045,8.181,8.181,0,0,0,1.94-4.735,3.259,3.259,0,0,0-.919-2.374c-.34-8-6.048-14.3-13.132-14.4l-.213,0C18.793.04,13.061,6.174,12.56,14.034a3.227,3.227,0,0,0-1.347,2.746,8.927,8.927,0,0,0,2.626,5.561,20.128,20.128,0,0,0,5.076,7.912A7.758,7.758,0,0,1,14.042,35.5a14.042,14.042,0,0,1-1.823.5C8.592,36.865,1.843,38.471.153,44.777a.714.714,0,0,0,.505.874Z" transform="translate(-5682.129 13014.997)"/>
  </g>
</svg>
