<svg xmlns="http://www.w3.org/2000/svg" width="24.499" height="29.699" viewBox="0 0 24.499 29.699">
  <defs>
    <style>
      .cls-1, .cls-2 {
        fill: none;
        stroke: #6a1476;
      }

      .cls-1 {
        stroke-width: 1.5px;
      }
    </style>
  </defs>
  <g id="Grupo_1610" data-name="Grupo 1610" transform="translate(0.75 0.756)">
    <path id="Caminho_1905" data-name="Caminho 1905" class="cls-1" d="M-14464.775,16535.174v-15.945c0-3.508-1.158,3.35-3.982,3.35s-14.615-.021-16.828,0a2.094,2.094,0,0,0-2.184,2.137s-.012,13.684,0,17.051.508-1.9,3.17-1.9h5.813" transform="translate(14487.774 -16514.719)"/>
    <g id="Grupo_1605" data-name="Grupo 1605" transform="translate(4.107 11.17)">
      <path id="Caminho_1906" data-name="Caminho 1906" class="cls-2" d="M-14437.441,16567.014v5.7h-9.118V16561.6h14.7v6.953h-1.5" transform="translate(14446.601 -16561.6)"/>
      <path id="Caminho_1907" data-name="Caminho 1907" class="cls-2" d="M-14408.591,16606.709h-5.7" transform="translate(14419.426 -16599.676)"/>
      <path id="Caminho_1908" data-name="Caminho 1908" class="cls-2" d="M-14444.926,16606.5h-1.915" transform="translate(14446.841 -16599.676)"/>
      <path id="Caminho_1909" data-name="Caminho 1909" class="cls-2" d="M-14385.795,16561.6v1.875" transform="translate(14394.872 -16561.6)"/>
    </g>
    <path id="Caminho_1910" data-name="Caminho 1910" class="cls-1" d="M-13865.544,16601.686v-9.17s6.672-.289,6.6,4.693" transform="translate(13881.781 -16592.512)"/>
  </g>
</svg>
