<svg xmlns="http://www.w3.org/2000/svg" width="23" height="20.125" viewBox="0 0 23 20.125">
  <defs>
    <style>
      .cls-1 {
        fill: #6a1476;
      }
    </style>
  </defs>
  <path id="store" class="cls-1" d="M19.406,75.5a.679.679,0,0,0-.719.719v5.75a.679.679,0,0,1-.719.719H15.813v-5.75A1.358,1.358,0,0,0,14.375,75.5H11.5a1.358,1.358,0,0,0-1.437,1.438v5.75H5.031a.679.679,0,0,1-.719-.719v-5.75a.679.679,0,0,0-.719-.719.679.679,0,0,0-.719.719v6.469a1.358,1.358,0,0,0,1.438,1.438H18.688a1.358,1.358,0,0,0,1.438-1.437V76.219A.679.679,0,0,0,19.406,75.5Zm-5.031,7.188H11.5v-5.75h2.875ZM20.125,64H2.875L0,69.75a4.236,4.236,0,0,0,4.313,4.313,4.3,4.3,0,0,0,3.594-1.869,4.39,4.39,0,0,0,7.188,0,4.3,4.3,0,0,0,3.594,1.869A4.236,4.236,0,0,0,23,69.75Zm-1.437,8.625a2.883,2.883,0,0,1-2.875-2.875.719.719,0,0,0-1.437,0,2.875,2.875,0,0,1-5.75,0,.679.679,0,0,0-.719-.719.679.679,0,0,0-.719.719,2.875,2.875,0,0,1-5.75,0l2.156-4.312H19.406l2.156,4.313A2.883,2.883,0,0,1,18.688,72.625Z" transform="translate(0 -64)"/>
</svg>
