<svg id="task" xmlns="http://www.w3.org/2000/svg" width="20" height="22" viewBox="0 0 20 22">
  <defs>
    <style>
      .cls-1 {
        fill: #6a1476;
      }
    </style>
  </defs>
  <path id="Caminho_1894" data-name="Caminho 1894" class="cls-1" d="M104.33,44.66h-3.5v-1a1,1,0,0,0-1-1h-9a1,1,0,0,0-1,1v1h-3.5a1,1,0,0,0-1,1v18a1,1,0,0,0,1,1h18a1,1,0,0,0,1-1v-18A1,1,0,0,0,104.33,44.66Zm-13.1-.81h8.279v3.619H91.227ZM103.895,63.2H86.9V46.1H89.83V47.66a1,1,0,0,0,1,1h9a1,1,0,0,0,1-1V46.1h3.065Z" transform="translate(-85.33 -42.66)"/>
  <path id="Caminho_1895" data-name="Caminho 1895" class="cls-1" d="M307.777,405.679l-4.721,5.153-2.521-2.752a1.035,1.035,0,0,0-1.555,0,1.278,1.278,0,0,0,0,1.7l3.3,3.6a1.036,1.036,0,0,0,1.555,0l5.5-6a1.279,1.279,0,0,0,0-1.7A1.035,1.035,0,0,0,307.777,405.679Z" transform="translate(-294.156 -397.622)"/>
</svg>
