<svg xmlns="http://www.w3.org/2000/svg" width="10.666" height="16.412" viewBox="0 0 10.666 16.412">
  <defs>
    <style>
      .cls-1 {
        fill: #6a1476;
      }
    </style>
  </defs>
  <path id="unidade_consumidora_-_Copia" data-name="unidade_consumidora - Copia" class="cls-1" d="M126.079,66.444a.433.433,0,0,0,.155.032.406.406,0,0,0,.343-.187l6.156-9.438a.418.418,0,0,0,0-.45.408.408,0,0,0-.41-.179l-4.351.725,1.128-6.4a.407.407,0,0,0-.259-.454.412.412,0,0,0-.494.171L122.191,60.52a.413.413,0,0,0,.012.442.42.42,0,0,0,.406.175l4.339-.725-1.116,5.574A.4.4,0,0,0,126.079,66.444Zm-2.729-6.263,4.558-7.594-.845,4.793a.408.408,0,0,0,.112.359.4.4,0,0,0,.359.116l4-.665-4.482,6.869.813-4.068a.405.405,0,0,0-.108-.367.413.413,0,0,0-.295-.124.387.387,0,0,0-.068,0Z" transform="translate(-122.132 -50.064)"/>
</svg>
